<svg xmlns="http://www.w3.org/2000/svg" version="1.1" xmlns:xlink="http://www.w3.org/1999/xlink" xmlns:svgjs="http://svgjs.dev/svgjs" width="1000" height="300" viewBox="0 0 1000 300"><g transform="matrix(1,0,0,1,-0.606047939537234,0.21391969934018107)"><svg viewBox="0 0 396 119" data-background-color="#ffffff" preserveAspectRatio="xMidYMid meet" height="300" width="1000" xmlns="http://www.w3.org/2000/svg" xmlns:xlink="http://www.w3.org/1999/xlink"><g id="tight-bounds" transform="matrix(1,0,0,1,0.23999498405675013,-0.08485481407160478)"><svg viewBox="0 0 395.52 119.16970962814322" height="119.16970962814322" width="395.52"><g><svg viewBox="0 0 618.2645836090455 186.28239002339916" height="119.16970962814322" width="395.52"><g transform="matrix(1,0,0,1,222.74458360904558,54.52842456315078)"><svg viewBox="0 0 395.52 77.2255408970976" height="77.2255408970976" width="395.52"><g><svg viewBox="0 0 395.52 77.2255408970976" height="77.2255408970976" width="395.52"><g><svg viewBox="0 0 395.52 77.2255408970976" height="77.2255408970976" width="395.52"><g transform="matrix(1,0,0,1,0,0)"><svg width="395.52" viewBox="3.549999952316284 -32.75 170.5399932861328 33.29999923706055" height="77.2255408970976" data-palette-color="#202046"><g class="undefined-text-0" data-fill-palette-color="primary" id="text-0"><path d="M18.2-30.2L19.5-32.75 22.65-32.75Q17.65-22.75 13.7-16.85L13.7-16.85Q15.2-14.6 17.5-10.4L17.5-10.4 23 0 19.65 0Q14.05-10.95 11.35-15.25L11.35-15.25 6.3-14.75 6.3 0 3.55 0 3.55-32.75 6.3-32.75 6.3-17.3 11.15-17.8Q14.7-23.2 18.2-30.2L18.2-30.2ZM38.4-13.45L38.4-13.45Q35.7-13.3 34.9-13.3L34.9-13.3 30.8-13.3 30.8 0 28.05 0 28.05-32.75 35.4-32.75Q41.5-32.75 44.35-30.65 47.2-28.55 47.2-23.25L47.2-23.25Q47.2-19.7 45.77-17.55 44.35-15.4 41.2-14.05L41.2-14.05Q44.6-7.6 47.4 0L47.4 0 44.4 0Q41.65-7.3 38.4-13.45ZM35.3-30.25L35.3-30.25 30.8-30.25 30.8-15.8 34.8-15.8Q39.4-15.8 41.85-17.48 44.3-19.15 44.3-23.25 44.3-27.35 42.12-28.8 39.95-30.25 35.3-30.25ZM53.75 0L50.85 0 60.25-32.75 65.05-32.75 74.09 0 71.15 0 69.09-7.55 55.85-7.55 53.75 0ZM56.55-10.05L68.45-10.05 63.05-30.25 62.2-30.25 56.55-10.05ZM93.14-30.25L90.59-30.25 90.59-10.75Q90.59-3.95 89.42-1.73 88.24 0.5 83.89 0.55L83.89 0.55Q83.04 0.55 80.94 0.25 78.84-0.05 77.89-0.3L77.89-0.3 78.44-2.9Q81.84-2.05 84.14-2.05 86.44-2.05 87.14-3.58 87.84-5.1 87.84-10.9L87.84-10.9 87.84-30.25 79.79-30.25 79.79-32.75 93.14-32.75 93.14-30.25ZM119.49 0L105.54 0 105.54-2.5 111.19-2.5 111.19-30.25 105.54-30.25 105.54-32.75 119.49-32.75 119.49-30.25 113.94-30.25 113.94-2.5 119.49-2.5 119.49 0ZM147.44 0L144.69 0 144.69-5.15 130.44-27.55 130.29-27.55 130.29 0 127.54 0 127.54-32.75 130.24-32.75 144.54-10.1 144.69-10.1 144.69-32.75 147.44-32.75 147.44 0ZM153.74 0L150.84 0 160.24-32.75 165.04-32.75 174.09 0 171.14 0 169.09-7.55 155.84-7.55 153.74 0ZM156.54-10.05L168.44-10.05 163.04-30.25 162.19-30.25 156.54-10.05Z" fill="#202046" data-fill-palette-color="primary"></path></g></svg></g></svg></g></svg></g></svg></g><g><svg viewBox="0 0 186.28239002339916 186.28239002339916" height="186.28239002339916" width="186.28239002339916"><g><svg></svg></g><g id="icon-0"><svg viewBox="0 0 186.28239002339916 186.28239002339916" height="186.28239002339916" width="186.28239002339916"><g><path d="M0 93.141c0-51.44 41.701-93.141 93.141-93.141 51.44 0 93.141 41.701 93.141 93.141 0 51.44-41.701 93.141-93.141 93.141-51.44 0-93.141-41.701-93.141-93.141zM93.141 179.318c47.594 0 86.177-38.583 86.177-86.177 0-47.594-38.583-86.177-86.177-86.177-47.594 0-86.177 38.583-86.177 86.177 0 47.594 38.583 86.177 86.177 86.177z" data-fill-palette-color="accent" fill="#3d69fe" stroke="transparent"></path></g><g transform="matrix(1,0,0,1,40.760403538206035,40.84686690983801)"><svg viewBox="0 0 104.76158294698709 104.58865620372313" height="104.58865620372313" width="104.76158294698709"><g><svg xmlns="http://www.w3.org/2000/svg" xmlns:xlink="http://www.w3.org/1999/xlink" version="1.1" x="0" y="0" viewBox="0 0.20499849319458008 99.95999908447266 99.79499816894531" enable-background="new 0 0 100 100" xml:space="preserve" height="104.58865620372313" width="104.76158294698709" class="icon-a-0" data-fill-palette-color="accent" id="a-0"><g fill="#3d69fe" data-fill-palette-color="accent"><circle cx="49.98" cy="50.02" r="8.3" fill="#3d69fe" data-fill-palette-color="accent"></circle><path d="M57.492 7.246c0 3.889-3.152 26.404-7.041 26.404-3.888 0-7.041-22.516-7.041-26.404s3.153-7.041 7.041-7.041C54.34 0.205 57.492 3.357 57.492 7.246z" fill="#3d69fe" data-fill-palette-color="accent"></path><path d="M43.41 92.958c0-3.889 3.153-26.403 7.041-26.403 3.889 0 7.041 22.515 7.041 26.403S54.34 100 50.451 100C46.563 100 43.41 96.847 43.41 92.958z" fill="#3d69fe" data-fill-palette-color="accent"></path><path d="M85.757 24.872c-2.791 2.707-21.142 16.131-23.849 13.341-2.708-2.79 11.248-20.736 14.038-23.445 2.79-2.707 7.249-2.643 9.956 0.148C88.612 17.705 88.546 22.163 85.757 24.872z" fill="#3d69fe" data-fill-palette-color="accent"></path><path d="M14.773 75.181c2.79-2.708 21.14-16.129 23.849-13.342 2.707 2.792-11.249 20.736-14.039 23.445-2.789 2.71-7.247 2.645-9.955-0.146C11.919 82.348 11.985 77.892 14.773 75.181z" fill="#3d69fe" data-fill-palette-color="accent"></path><path d="M74.163 86.315c-2.63-2.866-15.548-21.574-12.685-24.207C64.342 59.479 81.9 73.92 84.53 76.785c2.633 2.861 2.445 7.316-0.416 9.947C81.25 89.364 76.797 89.177 74.163 86.315z" fill="#3d69fe" data-fill-palette-color="accent"></path><path d="M24.717 14.668c2.716 2.781 16.189 21.094 13.407 23.809-2.781 2.717-20.767-11.188-23.483-13.973-2.717-2.779-2.664-7.239 0.12-9.957C17.542 11.832 22.002 11.885 24.717 14.668z" fill="#3d69fe" data-fill-palette-color="accent"></path><path d="M7.041 42.756c3.89 0 26.403 3.154 26.403 7.042 0 3.889-22.514 7.042-26.403 7.042C3.153 56.84 0 53.687 0 49.798 0 45.91 3.153 42.756 7.041 42.756z" fill="#3d69fe" data-fill-palette-color="accent"></path><path d="M92.918 57.059c-3.889 0-26.402-3.15-26.402-7.039s22.514-7.041 26.402-7.041c3.89 0 7.042 3.152 7.042 7.041S96.808 57.059 92.918 57.059z" fill="#3d69fe" data-fill-palette-color="accent"></path></g></svg></g></svg></g></svg></g></svg></g></svg></g><defs></defs></svg><rect width="395.52" height="119.16970962814322" fill="none" stroke="none" visibility="hidden"></rect></g></svg></g></svg>